<?xml version="1.0" encoding="UTF-8"?>
<svg width="577px" height="147px" viewBox="0 0 577 147" version="1.1" xmlns="http://www.w3.org/2000/svg" xmlns:xlink="http://www.w3.org/1999/xlink">
    <!-- Generator: Sketch 42 (36781) - http://www.bohemiancoding.com/sketch -->
    <title>iPad Landscape</title>
    <desc>Created with Sketch.</desc>
    <defs></defs>
    <g id="New-Storydoc-logo+typeface" stroke="none" stroke-width="1" fill="none" fill-rule="evenodd">
        <g id="iPad-Landscape">
            <g id="Group-2">
                <g id="Storydoc-typeface" transform="translate(210.000000, 29.000000)" fill="#605380">
                    <path d="M350.205232,13.8747857 C355.618283,13.8747857 361.244816,15.154875 366.87135,17.6089821 L366.87135,32.9716607 C362.306638,29.9839821 357.740326,28.3840714 353.389097,28.3840714 C345.427836,28.3840714 339.69496,33.8250536 339.69496,41.8262143 C339.69496,49.7213036 345.427836,55.2691607 353.389097,55.2691607 C357.740326,55.2691607 362.306638,53.6684464 366.87135,50.6815714 L366.87135,66.0426429 C361.244816,68.4975536 355.618283,69.7776429 350.205232,69.7776429 C333.643858,69.7776429 321.967821,58.1499643 321.967821,41.8262143 C321.967821,25.3963929 333.643858,13.8747857 350.205232,13.8747857" id="c"></path>
                    <path d="M291.707431,53.6570357 C297.904054,53.6570357 302.344035,48.3639107 302.344035,40.5813214 C302.344035,32.7963214 297.904054,27.5031964 291.707431,27.5031964 C285.407664,27.5031964 281.070828,32.7963214 281.070828,40.5813214 C281.070828,48.3639107 285.407664,53.6570357 291.707431,53.6570357 M291.707431,13.3884643 C307.920196,13.3884643 319.485893,24.5974821 319.485893,40.5813214 C319.485893,56.4590893 307.920196,67.7717679 291.707431,67.7717679 C275.391523,67.7717679 263.824227,56.4590893 263.824227,40.5813214 C263.824227,24.5974821 275.391523,13.3884643 291.707431,13.3884643" id="o"></path>
                    <path d="M244.503476,49.6125 C242.024826,51.9991071 239.234347,53.2446429 236.34872,53.2446429 C230.25524,53.2446429 226.121493,48.0535714 226.121493,40.5803571 C226.121493,33.0026786 230.25524,27.9160714 236.34872,27.9160714 C239.234347,27.9160714 242.024826,29.1616071 244.503476,31.5482143 L244.503476,49.6125 Z M244.503476,0 L244.503476,17.4375 C240.577615,14.7375 236.34872,13.3875 232.318116,13.3875 C218.581602,13.3875 208.874092,24.5973214 208.874092,40.5803571 C208.874092,56.5625893 218.581602,67.7732143 232.318116,67.7732143 C236.34872,67.7732143 240.577615,66.4232143 244.503476,63.7232143 L244.503476,66.5276786 L261.335103,66.5276786 L261.335103,0 L244.503476,0 Z" id="d"></path>
                    <polygon id="y" points="184.953128 89.2558929 168.519684 89.2558929 178.642167 64.2439286 159.226348 14.6338393 176.473749 14.6338393 186.708172 44.0051786 196.9322 14.6338393 214.074858 14.6338393"></polygon>
                    <path d="M162.718365,29.6997589 C161.478241,29.4908304 160.135773,29.2899375 158.687762,29.2899375 C154.866644,29.2899375 150.325119,31.3631518 147.439492,34.9952946 L147.439492,66.5274375 L130.599868,66.5274375 L130.599868,14.6327946 L147.439492,14.6327946 L147.439492,20.1533304 C150.309128,17.0836875 153.539367,15.2113661 156.824777,14.6327946 L162.718365,29.6997589 Z" id="r"></path>
                    <path d="M100.335161,53.6570357 C106.531785,53.6570357 110.971765,48.3631071 110.971765,40.5805179 C110.971765,32.7963214 106.531785,27.5031964 100.335161,27.5031964 C94.0369937,27.5031964 89.698558,32.7963214 89.698558,40.5805179 C89.698558,48.3631071 94.0369937,53.6570357 100.335161,53.6570357 M100.335161,13.3876607 C116.549525,13.3876607 128.115222,24.5966786 128.115222,40.5805179 C128.115222,56.4582857 116.549525,67.7709643 100.335161,67.7709643 C84.0192529,67.7709643 72.4535558,56.4582857 72.4535558,40.5805179 C72.4535558,24.5966786 84.0192529,13.3876607 100.335161,13.3876607" id="o"></path>
                    <path d="M66.7963987,53.5095 L71.5697974,65.6996786 C67.7470806,67.0504821 63.925963,67.7728929 60.3191285,67.7728929 C49.469841,67.7728929 41.7292593,60.4041429 41.7292593,49.9175357 L41.7292593,-0.000321428571 L58.5608867,-0.000321428571 L58.5608867,14.6327143 L65.2292527,14.6327143 L71.5697974,30.8246786 L58.5608867,30.8246786 L58.5608867,47.5317321 C58.5608867,51.0586071 61.1354837,53.6621786 65.0693399,53.6621786 C65.6210392,53.6621786 66.2047211,53.6059286 66.7963987,53.5095" id="t"></path>
                    <path d="M1.24891939,48.1120714 C6.4516841,51.2500179 11.6544488,52.8177857 16.7532702,52.8177857 C20.1873987,52.8177857 22.4765512,51.3544821 22.4765512,49.0538571 C22.4765512,42.7779643 0,46.7532321 0,28.346625 C0,18.3076071 8.7408366,11.4049286 21.2276318,11.4049286 C26.2225098,11.4049286 31.5292179,12.4511786 36.5240959,14.4376071 L36.5240959,28.86975 C31.8418475,26.1504643 27.0548562,24.791625 22.3726078,24.791625 C19.146366,24.791625 16.9611569,26.1504643 16.9611569,28.1376964 C16.9611569,33.994125 39.3337647,30.0204643 39.3337647,48.8449286 C39.3337647,59.0936786 30.697671,66.2044821 17.8982462,66.2044821 C12.3828519,66.2044821 6.86745752,64.9493036 1.24891939,62.6486786 L1.24891939,48.1120714 Z" id="s"></path>
                </g>
                <g id="Sdoc-2-">
                    <rect id="Rectangle" fill="#739DFF" opacity="0.900000036" x="0" y="0" width="163" height="67.6036866" rx="8"></rect>
                    <rect id="Rectangle" fill="#6CE5DE" x="87" y="78.8709677" width="75.8663594" height="67.6036866" rx="8"></rect>
                    <g id="Group" transform="translate(0.000000, 78.000000)">
                        <rect id="Rectangle" fill="#FF70C5" x="0.133640553" y="0.870967742" width="75.8663594" height="67.6036866" rx="8"></rect>
                        <path d="M36.4669182,42.7513581 C37.1050209,43.3888424 37.9416446,43.6948349 38.7754322,43.6863351 C39.6120558,43.6976682 40.4486794,43.3888424 41.0867822,42.7513581 L47.9442598,35.9345255 C50.29815,33.5829166 50.29815,29.7721768 47.9442598,27.4205679 C45.5932056,25.0717923 41.7759331,25.0717923 39.424879,27.4205679 L38.8151363,28.0212198 L38.2110657,27.4205679 C35.8600116,25.0717923 32.0455751,25.0717923 29.6916849,27.4205679 C27.3377947,29.7721768 27.3377947,33.5800833 29.6916849,35.9316922 L36.4669182,42.7513581 Z" id="heart" fill="#FFFFFF" fill-rule="nonzero"></path>
                    </g>
                </g>
            </g>
        </g>
    </g>
</svg>